HIERARCHY
ROOT Hips
{
	OFFSET 0.000000 100.481300 0.000000
	CHANNELS 6 Xposition Yposition Zposition Xrotation Yrotation Zrotation 
	JOINT Spine
	{
		OFFSET -0.279200 12.230698 -2.892100
		CHANNELS 3 Xrotation Yrotation Zrotation
		JOINT Spine1
		{
			OFFSET -0.232667 10.192268 -1.242267
			CHANNELS 3 Xrotation Yrotation Zrotation
			JOINT Spine1_split
			{
				OFFSET -0.232667 10.192268 -1.242267
				CHANNELS 3 Xrotation Yrotation Zrotation
				JOINT Spine2
				{
					OFFSET -0.232667 10.192268 -1.242267
					CHANNELS 3 Xrotation Yrotation Zrotation
					JOINT Neck
					{
						OFFSET -0.418800 17.814194 8.416900
						CHANNELS 3 Xrotation Yrotation Zrotation
						JOINT Head
						{
							OFFSET 0.000000 7.031097 3.806800
							CHANNELS 3 Xrotation Yrotation Zrotation
							JOINT HeadTop_End
							{
								OFFSET 0.000000 24.646606 12.978600
								CHANNELS 3 Xrotation Yrotation Zrotation
								End Site
								{
									OFFSET 0.000000 0.000000 0.000000
								}
							}
						}
					}
					JOINT LeftShoulder
					{
						OFFSET 8.476499 7.247704 -3.868750
						CHANNELS 3 Xrotation Yrotation Zrotation
						JOINT LeftShoulder_split
						{
							OFFSET 8.476499 7.247704 -3.868750
							CHANNELS 3 Xrotation Yrotation Zrotation
							JOINT LeftArm
							{
								OFFSET 9.308998 -2.777710 0.208600
								CHANNELS 3 Xrotation Yrotation Zrotation
								JOINT LeftForeArm
								{
									OFFSET 29.972298 0.000000 0.000000
									CHANNELS 3 Xrotation Yrotation Zrotation
									JOINT LeftHand
									{
										OFFSET 26.026505 0.000000 0.000000
										CHANNELS 3 Xrotation Yrotation Zrotation
										JOINT LeftHandThumb1
										{
											OFFSET 12.240501 -7.147949 9.207150
											CHANNELS 3 Xrotation Yrotation Zrotation
											JOINT LeftHandThumb2
											{
												OFFSET 4.138618 -2.389435 2.389433
												CHANNELS 3 Xrotation Yrotation Zrotation
												JOINT LeftHandThumb3
												{
													OFFSET 2.726913 -1.574387 1.574386
													CHANNELS 3 Xrotation Yrotation Zrotation
													JOINT LeftHandThumb4
													{
														OFFSET 3.941010 -2.275345 2.275342
														CHANNELS 3 Xrotation Yrotation Zrotation
														End Site
														{
															OFFSET 0.000000 0.000000 0.000000
														}
													}
												}
											}
										}
										JOINT LeftHandIndex1
										{
											OFFSET 24.424698 -1.985611 5.953459
											CHANNELS 3 Xrotation Yrotation Zrotation
											JOINT LeftHandIndex2
											{
												OFFSET 6.426697 0.000000 0.000000
												CHANNELS 3 Xrotation Yrotation Zrotation
												JOINT LeftHandIndex3
												{
													OFFSET 5.337898 0.000000 0.000000
													CHANNELS 3 Xrotation Yrotation Zrotation
													JOINT LeftHandIndex4
													{
														OFFSET 4.409401 0.000000 0.000000
														CHANNELS 3 Xrotation Yrotation Zrotation
														End Site
														{
															OFFSET 0.000000 0.000000 0.000000
														}
													}
												}
											}
										}
										JOINT LeftHandMiddle1
										{
											OFFSET 23.810104 0.000000 0.000000
											CHANNELS 3 Xrotation Yrotation Zrotation
											JOINT LeftHandMiddle2
											{
												OFFSET 7.176498 0.000000 0.000000
												CHANNELS 3 Xrotation Yrotation Zrotation
												JOINT LeftHandMiddle3
												{
													OFFSET 6.774902 0.000000 0.000000
													CHANNELS 3 Xrotation Yrotation Zrotation
													JOINT LeftHandMiddle4
													{
														OFFSET 5.403328 0.000000 0.000000
														CHANNELS 3 Xrotation Yrotation Zrotation
														End Site
														{
															OFFSET 0.000000 0.000000 0.000000
														}
													}
												}
											}
										}
										JOINT LeftHandRing1
										{
											OFFSET 22.908401 -0.839279 -6.020567
											CHANNELS 3 Xrotation Yrotation Zrotation
											JOINT LeftHandRing2
											{
												OFFSET 6.337502 0.000000 0.000000
												CHANNELS 3 Xrotation Yrotation Zrotation
												JOINT LeftHandRing3
												{
													OFFSET 5.779297 0.000000 0.000000
													CHANNELS 3 Xrotation Yrotation Zrotation
													JOINT LeftHandRing4
													{
														OFFSET 4.965698 0.000000 0.000000
														CHANNELS 3 Xrotation Yrotation Zrotation
														End Site
														{
															OFFSET 0.000000 0.000000 0.000000
														}
													}
												}
											}
										}
										JOINT LeftHandPinky1
										{
											OFFSET 20.037003 -1.530319 -10.950146
											CHANNELS 3 Xrotation Yrotation Zrotation
											JOINT LeftHandPinky2
											{
												OFFSET 5.254700 0.000000 0.000000
												CHANNELS 3 Xrotation Yrotation Zrotation
												JOINT LeftHandPinky3
												{
													OFFSET 4.810204 0.000000 0.000000
													CHANNELS 3 Xrotation Yrotation Zrotation
													JOINT LeftHandPinky4
													{
														OFFSET 3.647202 0.000000 0.000000
														CHANNELS 3 Xrotation Yrotation Zrotation
														End Site
														{
															OFFSET 0.000000 0.000000 0.000000
														}
													}
												}
											}
										}
									}
								}
							}
						}
					}
					JOINT RightShoulder
					{
						OFFSET -7.570500 7.247704 -3.868750
						CHANNELS 3 Xrotation Yrotation Zrotation
						JOINT RightShoulder_split
						{
							OFFSET -7.570500 7.247704 -3.868750
							CHANNELS 3 Xrotation Yrotation Zrotation
							JOINT RightArm
							{
								OFFSET -9.308998 -2.777710 0.208500
								CHANNELS 3 Xrotation Yrotation Zrotation
								JOINT RightForeArm
								{
									OFFSET -29.972300 0.000000 0.000000
									CHANNELS 3 Xrotation Yrotation Zrotation
									JOINT RightHand
									{
										OFFSET -26.026505 0.000000 0.000000
										CHANNELS 3 Xrotation Yrotation Zrotation
										JOINT RightHandThumb1
										{
											OFFSET -12.240601 -7.148026 9.207092
											CHANNELS 3 Xrotation Yrotation Zrotation
											JOINT RightHandThumb2
											{
												OFFSET -4.138618 -2.389435 2.389433
												CHANNELS 3 Xrotation Yrotation Zrotation
												JOINT RightHandThumb3
												{
													OFFSET -2.726974 -1.574417 1.574421
													CHANNELS 3 Xrotation Yrotation Zrotation
													JOINT RightHandThumb4
													{
														OFFSET -3.941010 -2.275345 2.275343
														CHANNELS 3 Xrotation Yrotation Zrotation
														End Site
														{
															OFFSET 0.000000 0.000000 0.000000
														}
													}
												}
											}
										}
										JOINT RightHandIndex1
										{
											OFFSET -24.424698 -1.985657 5.953444
											CHANNELS 3 Xrotation Yrotation Zrotation
											JOINT RightHandIndex2
											{
												OFFSET -6.426697 0.000000 0.000000
												CHANNELS 3 Xrotation Yrotation Zrotation
												JOINT RightHandIndex3
												{
													OFFSET -5.337898 0.000000 0.000000
													CHANNELS 3 Xrotation Yrotation Zrotation
													JOINT RightHandIndex4
													{
														OFFSET -4.409401 0.000000 0.000000
														CHANNELS 3 Xrotation Yrotation Zrotation
														End Site
														{
															OFFSET 0.000000 0.000000 0.000000
														}
													}
												}
											}
										}
										JOINT RightHandMiddle1
										{
											OFFSET -23.810097 0.000000 0.000000
											CHANNELS 3 Xrotation Yrotation Zrotation
											JOINT RightHandMiddle2
											{
												OFFSET -7.176498 0.000000 0.000000
												CHANNELS 3 Xrotation Yrotation Zrotation
												JOINT RightHandMiddle3
												{
													OFFSET -6.774902 0.000000 0.000000
													CHANNELS 3 Xrotation Yrotation Zrotation
													JOINT RightHandMiddle4
													{
														OFFSET -5.403328 0.000000 0.000000
														CHANNELS 3 Xrotation Yrotation Zrotation
														End Site
														{
															OFFSET 0.000000 0.000000 0.000000
														}
													}
												}
											}
										}
										JOINT RightHandRing1
										{
											OFFSET -22.908302 -0.839325 -6.020576
											CHANNELS 3 Xrotation Yrotation Zrotation
											JOINT RightHandRing2
											{
												OFFSET -6.337502 0.000000 0.000000
												CHANNELS 3 Xrotation Yrotation Zrotation
												JOINT RightHandRing3
												{
													OFFSET -5.779297 0.000000 0.000000
													CHANNELS 3 Xrotation Yrotation Zrotation
													JOINT RightHandRing4
													{
														OFFSET -4.965698 0.000000 0.000000
														CHANNELS 3 Xrotation Yrotation Zrotation
														End Site
														{
															OFFSET 0.000000 0.000000 0.000000
														}
													}
												}
											}
										}
										JOINT RightHandPinky1
										{
											OFFSET -20.037003 -1.530334 -10.950259
											CHANNELS 3 Xrotation Yrotation Zrotation
											JOINT RightHandPinky2
											{
												OFFSET -5.254700 0.000000 0.000000
												CHANNELS 3 Xrotation Yrotation Zrotation
												JOINT RightHandPinky3
												{
													OFFSET -4.810204 0.000000 0.000000
													CHANNELS 3 Xrotation Yrotation Zrotation
													JOINT RightHandPinky4
													{
														OFFSET -3.647202 0.000000 0.000000
														CHANNELS 3 Xrotation Yrotation Zrotation
														End Site
														{
															OFFSET 0.000000 0.000000 0.000000
														}
													}
												}
											}
										}
									}
								}
							}
						}
					}
				}
			}
		}
	}
	JOINT LeftUpLeg
	{
		OFFSET 15.427100 -6.655098 0.678600
		CHANNELS 3 Xrotation Yrotation Zrotation
		JOINT LeftLeg
		{
			OFFSET 4.081073 -39.591068 13.024000
			CHANNELS 3 Xrotation Yrotation Zrotation
			JOINT LeftFoot
			{
				OFFSET -4.081074 -37.707932 -15.979700
				CHANNELS 3 Xrotation Yrotation Zrotation
				JOINT LeftToeBase
				{
					OFFSET 5.346399 -15.068900 20.645000
					CHANNELS 3 Xrotation Yrotation Zrotation
					JOINT LeftToe_End
					{
						OFFSET 2.754700 0.931300 11.300900
						CHANNELS 3 Xrotation Yrotation Zrotation
						End Site
						{
							OFFSET 0.000000 0.000000 0.000000
						}
					}
				}
			}
		}
	}
	JOINT RightUpLeg
	{
		OFFSET -15.569500 -6.655098 0.678600
		CHANNELS 3 Xrotation Yrotation Zrotation
		JOINT RightLeg
		{
			OFFSET -4.081825 -39.591045 13.023800
			CHANNELS 3 Xrotation Yrotation Zrotation
			JOINT RightFoot
			{
				OFFSET 4.081824 -37.707954 -15.979600
				CHANNELS 3 Xrotation Yrotation Zrotation
				JOINT RightToeBase
				{
					OFFSET -5.346400 -15.068900 20.645000
					CHANNELS 3 Xrotation Yrotation Zrotation
					JOINT RightToe_End
					{
						OFFSET -2.754700 0.931300 11.300900
						CHANNELS 3 Xrotation Yrotation Zrotation
						End Site
						{
							OFFSET 0.000000 0.000000 0.000000
						}
					}
				}
			}
		}
	}
}
MOTION
Frames: 4
Frame Time: 0.016667
-8.629941 89.932465 504.233154 178.344927 19.253228 -173.639432 -7.962101 9.812716 -4.785782 2.885766 0.867783 -2.840126 0.000000 0.000000 0.000000 2.918913 0.925578 -2.789146 -2.267353 -1.126767 -1.980808 5.163784 9.476490 4.286313 0.000000 0.000000 -0.000000 2.179066 -9.179413 -8.047977 0.000000 0.000000 0.000000 14.406954 29.963965 -77.628631 0.000000 -34.684449 -0.000004 14.422655 3.046596 -0.816624 -6.684700 7.621267 19.674618 12.443670 25.448709 -7.963721 5.136232 7.868240 -3.074658 -0.000001 -0.000001 0.000000 -0.599930 -1.191959 -15.838717 0.763110 3.155585 -27.183127 0.349277 2.169160 -18.292239 0.000000 0.000000 -0.000006 -0.513523 -1.737477 -12.002732 0.474079 2.515165 -21.345301 0.506565 2.596688 -22.073848 -0.000000 -0.000001 -0.000004 0.001055 0.779663 -12.836418 0.906747 3.420417 -29.687130 0.010823 0.386695 -3.206020 -0.000001 -0.000000 -0.000001 2.100227 10.721548 -11.319413 0.694476 -1.057922 -26.220978 0.652030 2.929543 -25.090691 -0.000000 0.000000 -0.000001 1.176339 8.510090 2.447321 0.000000 0.000000 0.000000 54.046648 33.855875 65.975700 -0.000043 63.444043 0.000048 52.855521 43.637221 -78.072566 2.028295 4.773718 9.571608 4.642472 -8.639178 -0.222136 -7.858481 19.054607 -1.516464 -0.000001 -0.000002 -0.000001 8.333987 12.771168 -38.552644 0.273792 -1.935667 16.100445 0.241782 -1.821137 15.123588 -0.000001 0.000000 0.000001 3.496433 8.099783 -28.749345 0.565363 -2.751021 23.221784 2.245367 -0.071469 0.868664 -0.000001 0.000000 0.000000 1.427757 5.041225 -20.610584 0.144914 -1.414981 11.694196 -0.548240 -0.393220 2.985496 0.000002 0.000001 -0.000001 -3.351273 -9.486524 -18.455434 0.124452 -1.312289 10.834513 0.090375 -1.119734 9.229098 0.000001 -0.000001 -0.000000 -10.513240 5.228480 -15.793149 27.137419 3.092639 2.435324 -17.938785 -0.406982 0.042774 0.075839 -0.000784 0.179291 -0.000000 0.000001 0.000000 -0.753279 -11.083649 -16.963830 46.979178 -9.289098 -0.574390 19.502070 -6.038683 28.429773 -37.731693 -6.489062 13.543109 0.000001 -0.000000 -0.000000 
-8.538229 89.141541 503.916107 178.452516 18.776501 -173.140869 -7.736108 9.525051 -4.682434 2.875275 0.818129 -2.931604 0.000000 0.000000 0.000000 2.908802 0.873100 -2.883819 -2.130121 -0.781071 -2.167742 5.293202 11.076065 3.964216 -0.000000 0.000000 0.000000 2.350524 -9.842291 -8.206657 0.000000 0.000000 0.000000 12.252313 28.921292 -76.587184 -0.000004 -33.323940 -0.000002 15.503478 3.149336 -1.500102 -6.700401 7.648513 20.154628 12.316243 25.187818 -7.880608 5.028902 7.619578 -3.015369 0.000002 0.000000 -0.000001 -0.634960 -1.349614 -15.696733 0.763056 3.155490 -27.182235 0.348866 2.167937 -18.281520 -0.000002 0.000000 -0.000003 -0.502566 -1.793115 -11.613227 0.485401 2.543910 -21.601819 0.504149 2.590735 -22.020470 0.000000 0.000000 0.000002 -0.009624 0.728890 -12.781715 0.923276 3.449211 -29.963104 0.009970 0.371096 -3.076503 0.000002 0.000000 -0.000004 1.964090 10.449544 -10.849565 0.730374 -0.986115 -26.885445 0.652540 2.930628 -25.100681 -0.000001 -0.000001 -0.000006 1.147073 8.186081 2.395672 0.000000 0.000000 0.000000 53.514153 32.226089 67.039939 0.000019 64.113620 -0.000023 51.483845 43.898411 -75.395767 1.630048 4.544533 9.876827 4.619477 -8.628184 -0.234501 -7.863834 19.056158 -1.516040 0.000000 0.000000 0.000001 8.024292 12.463478 -38.292766 0.272160 -1.929965 16.051757 0.241652 -1.820671 15.119667 0.000000 -0.000002 0.000000 3.286606 7.766342 -28.519714 0.563645 -2.746977 23.185630 2.029250 -0.074429 0.864582 -0.000000 0.000001 -0.000000 1.292493 4.713905 -20.382825 0.143443 -1.407898 11.634672 -0.829180 -0.408313 2.986809 -0.000000 0.000000 0.000001 -3.406034 -9.828162 -18.246073 0.124798 -1.314077 10.849492 0.090117 -1.118074 9.215506 -0.000002 -0.000000 -0.000000 -10.799128 5.624076 -16.384244 28.768934 2.562261 2.382510 -18.996793 -0.467431 -0.155866 0.074960 -0.000787 0.177486 -0.000000 -0.000001 0.000000 -4.114057 -9.866125 -19.001026 52.404790 -9.333883 -0.711451 20.280978 -4.311295 28.434656 -30.074173 -5.916283 16.389708 -0.000000 0.000000 -0.000000 
-8.374387 88.264915 503.619049 178.573288 18.452099 -172.586968 -7.292819 9.156315 -4.733345 2.875486 0.762738 -2.993524 0.000000 0.000000 0.000000 2.908380 0.813675 -2.949341 -2.055261 -0.454481 -2.308379 5.231539 12.641308 3.684728 0.000000 0.000000 -0.000000 2.546454 -10.572189 -8.378379 0.000000 0.000000 0.000000 9.922148 27.756094 -75.391990 -0.000006 -32.041900 -0.000008 16.831389 3.251081 -2.443228 -6.700544 7.737806 20.690859 12.203159 24.954407 -7.806890 4.916790 7.358031 -2.953355 0.000001 -0.000001 -0.000000 -0.673814 -1.516359 -15.590030 0.762996 3.155362 -27.181160 0.348359 2.166402 -18.268021 0.000001 -0.000000 -0.000001 -0.478434 -1.803006 -11.152376 0.496706 2.572276 -21.855236 0.501615 2.584457 -21.964333 0.000001 0.000001 0.000002 -0.003892 0.744796 -12.628213 0.940811 3.479385 -30.253227 0.009080 0.354236 -2.936649 -0.000001 -0.000000 -0.000001 1.821260 10.186826 -10.297958 0.772724 -0.903956 -27.650735 0.653784 2.933276 -25.125046 -0.000001 -0.000001 -0.000001 1.128168 7.962233 2.448089 0.000000 0.000000 0.000000 52.967185 30.554964 67.976904 -0.000070 64.710831 0.000067 50.178579 44.006024 -72.730163 1.538514 4.517432 9.972492 4.594848 -8.615011 -0.248079 -7.869319 19.058017 -1.515690 -0.000002 -0.000003 0.000000 7.968358 12.398182 -38.277784 0.271521 -1.927791 16.033114 0.241529 -1.820211 15.115815 0.000002 0.000001 -0.000000 3.251003 7.703724 -28.510818 0.563239 -2.746081 23.177690 1.961800 -0.075327 0.863222 0.000001 -0.000001 0.000000 1.270432 4.657459 -20.365551 0.142508 -1.403328 11.596585 -0.912822 -0.413127 2.989263 0.000003 0.000000 -0.000000 -3.420594 -9.891946 -18.227579 0.124330 -1.311604 10.828818 0.089850 -1.116440 9.201709 0.000001 -0.000000 0.000000 -11.136786 5.924955 -17.016460 30.520786 2.170346 2.359019 -20.141654 -0.432234 -0.364578 0.092342 -0.001193 0.219215 -0.000000 -0.000001 -0.000001 -7.869052 -8.003503 -20.771582 58.304544 -9.317115 -0.913189 21.682135 -2.865463 27.863238 -18.392257 -3.352413 18.994314 -0.000003 0.000000 -0.000000 
-8.114768 87.302879 503.300842 178.774901 18.236882 -172.019762 -6.579634 8.670847 -4.947261 2.893129 0.698839 -3.014760 0.000000 0.000000 0.000000 2.924215 0.744275 -2.974638 -2.071823 -0.141753 -2.407372 4.963951 14.191077 3.450174 0.000000 0.000000 -0.000000 2.756979 -11.327257 -8.553148 0.000000 0.000000 0.000000 7.462146 26.390232 -74.021711 0.000005 -30.901569 0.000012 18.404093 3.328759 -3.716055 -6.679914 7.905304 21.241943 12.115523 24.772321 -7.749811 4.807593 7.101539 -2.892888 0.000002 0.000002 -0.000000 -0.715148 -1.681686 -15.537909 0.762924 3.155236 -27.179853 0.347750 2.164543 -18.251860 0.000002 -0.000001 -0.000001 -0.441819 -1.753597 -10.653332 0.508281 2.600901 -22.111592 0.498875 2.577665 -21.903452 0.000000 -0.000001 -0.000001 0.018858 0.833780 -12.381415 0.958588 3.509631 -30.544862 0.008208 0.336796 -2.791971 -0.000001 0.000000 -0.000001 1.680023 9.950114 -9.693228 0.819468 -0.816289 -28.473211 0.655721 2.937404 -25.162875 -0.000002 -0.000000 -0.000001 1.119225 7.836396 2.584076 0.000000 0.000000 0.000000 52.387356 28.918847 68.720651 0.000030 65.210405 -0.000017 49.212790 43.993453 -70.307543 1.612530 4.590520 9.914303 4.591466 -8.611597 -0.250453 -7.869703 19.058473 -1.515838 0.000000 0.000001 -0.000001 8.043910 12.469089 -38.358073 0.271725 -1.928489 16.039222 0.241529 -1.820187 15.115480 -0.000001 -0.000000 0.000000 3.304412 7.786607 -28.584690 0.563697 -2.747171 23.187244 1.990286 -0.074943 0.863798 0.000003 0.000000 -0.000001 1.306154 4.743797 -20.435240 0.142636 -1.403907 11.601390 -0.870383 -0.410943 2.990000 -0.000002 0.000000 -0.000000 -3.408484 -9.802904 -18.290272 0.124128 -1.310602 10.820393 0.089807 -1.116238 9.200085 -0.000001 -0.000001 0.000000 -11.372559 6.161751 -17.659543 32.328146 1.882062 2.320190 -21.393583 -0.329159 -0.415039 0.117262 -0.001908 0.277993 0.000000 0.000001 0.000001 -11.844131 -5.483427 -22.126683 64.508862 -9.282864 -1.132265 23.809353 -1.433797 26.519362 -11.767662 -1.197074 14.212216 -0.000002 0.000000 0.000002 
